<svg width="728" height="539" viewBox="0 0 728 539" fill="none" xmlns="http://www.w3.org/2000/svg">
<g clip-path="url(#clip0_3_30974)">
<path d="M658.863 536.503H504.582V531.769C504.582 527.658 506.215 523.716 509.122 520.809C512.029 517.903 515.971 516.27 520.082 516.27H643.364C647.475 516.27 651.417 517.903 654.324 520.809C657.23 523.716 658.863 527.658 658.863 531.769V536.503Z" fill="#E6E6E6"/>
<path d="M578.113 517.215L582.805 515.325C533.714 393.473 538.443 239.747 579.941 107.876C584.87 92.5975 585.226 76.2107 580.964 60.7323C576.702 45.2538 568.008 31.3589 555.952 20.7569C531.865 -0.737516 498.658 -5.97375 469.285 7.09026C440.291 19.9876 436.295 42.4527 436.295 64.8085H441.353C441.353 40.9448 446.453 22.7829 471.341 11.7121C498.871 -0.531277 530 4.37955 552.584 24.5316C563.907 34.4891 572.073 47.5397 576.077 62.0776C580.08 76.6156 579.746 92.0068 575.116 106.357C533.139 239.75 528.687 394.533 578.113 517.215Z" fill="#E6E6E6"/>
<path d="M440.089 139.42C449.867 139.42 457.793 131.493 457.793 121.716C457.793 111.938 449.867 104.011 440.089 104.011C430.311 104.011 422.385 111.938 422.385 121.716C422.385 131.493 430.311 139.42 440.089 139.42Z" fill="#E6E6E6"/>
<path d="M412.821 152.579V119.034H418.037V152.579C419.534 153.184 420.773 154.291 421.542 155.71C422.312 157.129 422.564 158.771 422.256 160.355C421.948 161.939 421.098 163.367 419.853 164.393C418.607 165.42 417.043 165.981 415.429 165.981C413.815 165.981 412.252 165.42 411.006 164.393C409.761 163.367 408.911 161.939 408.603 160.355C408.294 158.771 408.547 157.129 409.316 155.71C410.086 154.291 411.325 153.184 412.821 152.579Z" fill="#E6E6E6"/>
<path d="M387.607 93.2615C387.616 85.5502 390.683 78.1572 396.136 72.7045C401.589 67.2517 408.982 64.1845 416.693 64.1758H464.748C472.462 64.1758 479.86 67.2402 485.315 72.6948C490.769 78.1494 493.834 85.5475 493.834 93.2615C493.834 100.976 490.769 108.374 485.315 113.828C479.86 119.283 472.462 122.347 464.748 122.347H416.693C408.982 122.339 401.589 119.271 396.136 113.819C390.683 108.366 387.616 100.973 387.607 93.2615Z" fill="#16AAFF"/>
<path d="M319.899 273.379C324.724 211.651 349.393 182.24 333.597 163.797C318.466 146.13 275.846 149.779 248.475 166.732C174.648 212.457 147.6 394.699 242.604 483.738C332.882 568.348 503.976 541.25 541.999 471.997C550.871 455.839 557.919 427.512 544.935 410.357C512.698 367.766 395.492 444.91 343.381 396.659C312.498 368.064 317.251 307.256 319.899 273.379Z" fill="#3F3D56"/>
<path d="M376.334 242.712C374.541 243.537 373.141 245.029 372.431 246.871C371.721 248.713 371.758 250.759 372.533 252.574C372.697 252.94 372.89 253.292 373.112 253.627L357.266 274.785L365.173 286.603L383.746 255.272C385.062 254.246 386.001 252.813 386.417 251.197C386.833 249.581 386.702 247.872 386.045 246.338C385.663 245.469 385.113 244.683 384.427 244.027C383.742 243.37 382.933 242.855 382.048 242.51C381.163 242.166 380.219 241.999 379.27 242.02C378.32 242.04 377.384 242.248 376.515 242.63C376.454 242.657 376.394 242.684 376.334 242.712Z" fill="#FFB6B6"/>
<path d="M376.322 279.192C377.359 280.112 374.482 281.247 371.439 279.456C370.568 278.938 370.197 278.722 370.099 278.859C369.854 279.202 371.283 281.726 370.901 287.332C370.666 290.679 365.109 296.97 358.798 303.104C350.266 311.401 340.345 319.405 340.345 319.405L336.862 316.616L300.338 287.332L294.174 278.801C294.738 275.431 295.586 272.116 296.708 268.889C298.253 264.423 300.09 260.063 302.207 255.837C303.342 253.538 304.506 251.346 305.621 249.331L325.19 270.895L341.588 288.957C341.588 288.957 346.363 281.266 350.061 279.172C350.533 278.871 351.069 278.687 351.626 278.634C355.364 278.458 355.589 276.423 351.255 271.991C346.92 267.559 352.39 271.697 356.244 270.504C360.099 269.31 356.245 270.504 357.057 267.52C357.869 264.535 368.68 258.547 368.68 258.547L369.13 258.949L377.3 266.16L379.638 268.224C379.638 268.224 377.085 275.229 376.38 276.707C375.676 278.184 375.294 278.263 376.322 279.192Z" fill="#16AAFF"/>
<path d="M591.688 415.109L592.086 404.317L550.649 397.646L550.061 413.573L591.688 415.109Z" fill="#FFB6B6"/>
<path d="M584.164 418.358L583.771 401.079L591.159 401.351L603.084 385.377C603.673 384.588 604.499 384.008 605.441 383.721C606.383 383.435 607.392 383.457 608.32 383.784C609.249 384.112 610.048 384.727 610.602 385.541C611.156 386.355 611.435 387.325 611.399 388.309L610.641 408.836L603.204 412.104L610.46 413.756L610.174 421.495L584.164 418.358Z" fill="#2F2E41"/>
<path d="M358.473 419.311L489.72 422.639C489.72 422.639 546.397 425.912 559.695 417.261L573.718 415.491L574.478 394.893C574.478 394.893 565.903 394.956 560.973 392.659C556.043 390.362 559.469 387.551 554.769 390.315C550.068 393.079 550.565 393.411 546.93 392.141C543.296 390.871 376.637 365.468 376.637 365.468L358.473 419.311Z" fill="#2F2E41"/>
<path d="M531.423 410.372L539.055 402.732L513.215 369.658L501.951 380.935L531.423 410.372Z" fill="#FFB6B6"/>
<path d="M523.699 403.725L535.163 390.79L540.393 396.014L560.001 392.415C560.969 392.237 561.969 392.373 562.854 392.804C563.74 393.234 564.465 393.937 564.922 394.808C565.38 395.68 565.548 396.675 565.4 397.648C565.253 398.622 564.798 399.523 564.102 400.219L549.586 414.752L541.91 412.09L546.107 418.235L540.634 423.715L523.699 403.725Z" fill="#2F2E41"/>
<path d="M306.693 347.431L307.998 377.762C309.534 413.468 348.856 435.078 379.347 416.435C379.909 416.092 380.473 415.736 381.039 415.367C381.039 415.367 392.598 412.263 392.247 407.347C391.896 402.431 394.72 400.039 397.219 401.379C399.718 402.72 432.438 356.284 432.438 356.284C432.438 356.284 500.42 390.194 515.417 398.177C515.417 398.177 529.518 376.13 528.496 376.361C527.473 376.593 444.394 318.444 444.394 318.444C444.394 318.444 430.859 304.746 414.07 313.791C413.72 315.119 414.019 315.165 414.019 315.165L358.559 360.357L350.722 345.475L306.693 347.431Z" fill="#2F2E41"/>
<path d="M358.984 309.513C358.879 310.914 358.679 312.307 358.387 313.681C357.988 315.671 357.344 317.603 356.47 319.434C356.47 319.434 356.47 321.479 352.556 328.328C348.642 335.177 353.534 332.242 356.47 337.33C359.405 342.407 356.47 340.069 353.211 343.337C352.273 344.288 351.607 345.473 351.282 346.768C350.957 348.064 350.984 349.423 351.362 350.704C351.362 350.704 309.329 350.734 301.502 347.799C293.675 344.863 291.894 328.328 298.909 326.694C305.915 325.06 296.786 323.436 292.667 319.669C288.548 315.902 296.786 309.738 296.786 309.738C296.786 309.738 293.391 303.878 293.675 284.202C293.715 282.392 293.882 280.587 294.174 278.801C294.738 275.431 295.586 272.116 296.708 268.889C298.253 264.423 300.09 260.063 302.207 255.837C303.341 253.538 304.506 251.346 305.621 249.331C305.797 249.018 305.964 248.714 306.14 248.411C308.263 244.654 310.2 241.582 311.482 239.615C312.47 238.089 313.067 237.228 313.067 237.228L320.19 224.841L343.965 235.985L342.615 254.213L346.715 267.96L348.603 274.29L350.061 279.172L352.311 286.736C352.311 286.736 351.695 286.765 352.429 287.773C355.808 292.266 357.999 297.539 358.798 303.104C359.08 305.229 359.142 307.376 358.984 309.513Z" fill="#16AAFF"/>
<path d="M427.643 311.478L427.197 311.333L370.291 293.009L391.26 224.215C391.678 222.845 392.401 221.588 393.375 220.538C394.349 219.488 395.549 218.673 396.884 218.154C398.219 217.635 399.654 217.426 401.081 217.543C402.509 217.659 403.891 218.098 405.124 218.827L441.489 240.312C444.368 242.011 446.558 244.667 447.677 247.817C448.795 250.966 448.772 254.409 447.61 257.543L427.643 311.478Z" fill="#2F2E41"/>
<path d="M427.875 315.851L370.512 297.379L391.481 228.585C391.899 227.215 392.622 225.958 393.596 224.908C394.57 223.858 395.77 223.043 397.105 222.524C398.439 222.005 399.875 221.796 401.302 221.913C402.73 222.03 404.112 222.469 405.345 223.197L443.446 242.22C449.17 245.601 449.036 254.352 446.378 261.532L427.875 315.851Z" fill="#16AAFF"/>
<path d="M422.133 320.83C420.812 321.575 419.351 322.038 417.842 322.188C416.332 322.338 414.809 322.173 413.367 321.702L376.701 309.895C373.888 308.976 371.546 306.993 370.175 304.37C368.804 301.748 368.513 298.693 369.363 295.858L387.746 235.552C388.113 234.347 388.717 233.228 389.523 232.259C390.328 231.291 391.319 230.493 392.437 229.913C393.555 229.333 394.778 228.982 396.033 228.88C397.289 228.779 398.552 228.929 399.748 229.322L437.745 241.798C439.555 242.392 441.228 243.343 442.665 244.595C444.102 245.847 445.273 247.374 446.11 249.086C446.946 250.798 447.431 252.66 447.536 254.563C447.641 256.465 447.364 258.37 446.72 260.163L427.066 314.958C426.183 317.446 424.432 319.531 422.133 320.83Z" fill="#3F3D56"/>
<path d="M342.621 225.053C357.125 225.053 368.882 213.295 368.882 198.791C368.882 184.287 357.125 172.53 342.621 172.53C328.117 172.53 316.359 184.287 316.359 198.791C316.359 213.295 328.117 225.053 342.621 225.053Z" fill="#FFB6B6"/>
<path d="M253.816 225.448C256.226 230.12 260.177 233.814 265 235.904C266.925 236.781 268.949 237.421 271.027 237.811C271.615 235.481 272.556 233.255 273.817 231.209C273.396 233.515 273.396 235.877 273.817 238.183C276.983 238.442 280.17 238.047 283.177 237.021C286.131 236.017 288.81 234.338 291.001 232.117C293.193 229.897 294.837 227.197 295.803 224.23C297.895 217.269 295.642 209.834 295.464 202.568C295.281 195.301 298.732 186.61 305.946 185.711C311.439 185.025 310.76 185.557 314.708 189.438C309.186 195.572 322.647 222.74 329.87 221.539C333.954 220.86 336.959 217.618 337.767 217.731C341.903 227.859 329.462 242.225 339.329 246.941L338.597 245.972C333.432 237.439 348.715 223.028 343.55 214.495C342.11 212.108 340.613 209.309 341.504 206.669C342.35 204.158 346.632 203.364 347.535 205.649C346.067 200.411 350.167 194.264 355.612 193.73C360.45 193.252 360.17 194.631 364.783 195.889C365.372 193.902 366.222 192.002 367.309 190.237C366.941 192.25 366.896 194.309 367.174 196.337C368.838 196.535 370.521 196.179 371.961 195.323C376.221 192.77 376.348 186.179 373.421 182.167C370.49 178.155 365.58 176.174 360.843 174.675C360.799 164.657 333.844 159.861 328.886 169.175C328.376 161.634 319.731 156.554 312.284 157.835C304.838 159.116 298.963 165.087 295.381 171.743C291.8 178.393 290.022 185.839 287.4 192.923C284.779 200.007 281.031 207.07 274.753 211.273C268.476 215.471 259.148 215.852 253.907 210.411C252.712 212.734 252.081 215.306 252.065 217.919C252.049 220.531 252.649 223.111 253.816 225.448Z" fill="#2F2E41"/>
<path d="M280.762 345.541C281.306 345.106 281.895 344.733 282.52 344.427C292.572 339.424 323.831 326.439 348.273 326.971C395.301 327.997 455.151 379.899 441.222 414.752C430.624 441.273 377.931 456.362 339.467 444.294C285.582 427.388 264.313 358.656 280.762 345.541Z" fill="#3F3D56"/>
<path d="M85.5289 536.603C70.1619 533.704 56.5593 464.473 86.7935 430.377C97.1522 418.695 110.073 413.611 127.261 408.879C226.186 381.644 301.638 407.6 311.777 413.937C321.894 420.26 339.63 515.53 316.95 529.016C304.19 536.603 278.898 540.397 266.366 531.545C247.927 518.52 278.877 484.734 265.102 461.992C249.469 436.185 167.152 427.492 125.881 453.14C81.8503 480.503 172.672 553.043 85.5289 536.603Z" fill="#F2F2F2"/>
<path d="M188.27 418.896H129.563C115.07 405.007 104.708 391.621 113.004 380.51C113.004 377.316 114.273 374.253 116.531 371.995C118.79 369.737 121.853 368.468 125.047 368.468H192.786C195.98 368.468 199.043 369.737 201.301 371.995C203.56 374.253 204.829 377.316 204.829 380.51C207.987 393.171 202.344 405.968 188.27 418.896Z" fill="#CCCCCC"/>
<path d="M177.727 353.307C177.17 353.333 176.618 353.187 176.147 352.888C175.676 352.59 175.308 352.154 175.093 351.64C174.878 351.125 174.826 350.557 174.945 350.012C175.063 349.467 175.346 348.972 175.756 348.594L175.942 347.853C175.918 347.794 175.893 347.734 175.868 347.675C175.307 346.35 174.367 345.219 173.165 344.427C171.964 343.634 170.555 343.214 169.116 343.219C167.676 343.225 166.271 343.655 165.075 344.457C163.88 345.258 162.948 346.395 162.397 347.725C160.193 353.032 157.388 358.347 156.697 363.958C156.393 366.438 156.522 368.953 157.077 371.389C151.902 360.1 149.214 347.831 149.197 335.412C149.196 332.296 149.369 329.182 149.716 326.086C150.002 323.547 150.4 321.026 150.908 318.523C153.681 304.944 159.637 292.217 168.284 281.386C172.47 279.102 175.855 275.59 177.983 271.324C178.754 269.79 179.299 268.153 179.601 266.463C179.129 266.525 177.82 259.334 178.177 258.893C177.519 257.894 176.341 257.398 175.622 256.424C172.048 251.578 167.124 252.424 164.554 259.009C159.062 261.781 159.009 266.377 162.379 270.797C164.522 273.61 164.817 277.415 166.698 280.426C166.504 280.674 166.303 280.914 166.109 281.161C162.572 285.71 159.489 290.594 156.905 295.744C157.533 289.975 156.783 284.139 154.716 278.716C152.621 273.662 148.694 269.405 145.236 265.036C141.083 259.788 132.565 262.078 131.833 268.731C131.826 268.795 131.819 268.86 131.813 268.924C132.326 269.214 132.829 269.522 133.321 269.847C133.939 270.26 134.418 270.85 134.695 271.539C134.972 272.229 135.034 272.986 134.873 273.712C134.713 274.438 134.336 275.098 133.794 275.606C133.252 276.114 132.568 276.447 131.834 276.56L131.759 276.572C131.942 278.423 132.265 280.257 132.726 282.059C128.29 299.215 137.867 305.464 151.542 305.744C151.844 305.899 152.139 306.054 152.44 306.201C149.844 313.56 148.215 321.225 147.595 329.004C147.244 333.593 147.265 338.203 147.657 342.789L147.634 342.626C146.643 337.527 143.923 332.926 139.932 329.6C134.005 324.731 125.632 322.938 119.238 319.025C118.559 318.588 117.769 318.356 116.961 318.354C116.154 318.352 115.362 318.581 114.681 319.014C113.999 319.447 113.455 320.065 113.114 320.797C112.772 321.529 112.647 322.343 112.753 323.144C112.762 323.201 112.771 323.258 112.78 323.315C113.733 323.703 114.661 324.15 115.558 324.654C116.072 324.943 116.575 325.251 117.067 325.576C117.685 325.989 118.164 326.579 118.44 327.269C118.717 327.958 118.78 328.716 118.619 329.441C118.458 330.167 118.082 330.827 117.54 331.335C116.997 331.844 116.314 332.176 115.579 332.289L115.504 332.301C115.45 332.309 115.403 332.316 115.349 332.324C116.978 336.213 119.264 339.792 122.107 342.905C124.88 357.881 136.794 359.302 149.538 354.941H149.546C150.944 361.017 152.97 366.931 155.591 372.589H177.186C177.263 372.349 177.333 372.101 177.403 371.861C175.404 371.987 173.397 371.867 171.427 371.505C173.029 369.539 174.631 367.557 176.234 365.591C176.269 365.555 176.303 365.516 176.334 365.475C177.147 364.469 177.968 363.471 178.78 362.464L178.781 362.463C178.824 359.379 178.47 356.302 177.728 353.308L177.727 353.307Z" fill="#CCCCCC"/>
<path d="M251.383 415.75C251.741 416.793 252.42 417.696 253.323 418.328C254.226 418.961 255.307 419.291 256.409 419.271L277.946 418.717C279.057 418.695 280.13 418.315 281.007 417.632C281.883 416.95 282.515 416.002 282.808 414.931L285.856 382.341C286.937 382.831 288.115 383.073 289.301 383.049C291.384 382.997 293.36 382.12 294.796 380.61C296.231 379.101 297.008 377.083 296.956 375C296.904 372.918 296.026 370.942 294.517 369.506C293.007 368.07 290.99 367.293 288.907 367.346C288.433 367.344 287.96 367.393 287.496 367.492C286.991 366.947 286.378 366.512 285.696 366.218C285.013 365.924 284.276 365.775 283.533 365.783L250.404 366.638C250.13 366.648 249.856 366.682 249.587 366.74C248.861 366.875 248.172 367.165 247.566 367.589C246.961 368.013 246.454 368.562 246.078 369.198C245.703 369.835 245.468 370.544 245.39 371.279C245.312 372.014 245.392 372.757 245.626 373.459L251.383 415.75ZM286.481 380.129L288.65 372.363C288.896 371.465 288.902 370.519 288.666 369.619C288.772 369.619 288.864 369.569 288.97 369.569C290.456 369.538 291.895 370.099 292.969 371.127C294.043 372.155 294.666 373.567 294.701 375.054C294.736 376.541 294.18 377.981 293.155 379.058C292.13 380.135 290.719 380.762 289.233 380.802C288.271 380.832 287.32 380.599 286.481 380.129Z" fill="#CCCCCC"/>
<path d="M249.588 366.74C250.294 370.776 258.229 373.613 267.771 373.119C276.545 372.715 283.719 369.634 285.033 365.983C284.547 365.839 284.041 365.772 283.534 365.783L250.405 366.638C250.13 366.649 249.857 366.683 249.588 366.74Z" fill="white"/>
<path d="M1.15341 538.131L726.469 538.429C726.775 538.429 727.068 538.308 727.285 538.091C727.501 537.875 727.622 537.582 727.622 537.276C727.622 536.97 727.501 536.676 727.285 536.46C727.068 536.244 726.775 536.122 726.469 536.122L1.15341 535.824C0.847504 535.824 0.554132 535.946 0.337825 536.162C0.121518 536.379 0 536.672 0 536.978C0 537.284 0.121518 537.577 0.337825 537.793C0.554132 538.01 0.847504 538.131 1.15341 538.131Z" fill="#CACACA"/>
<path d="M407.962 280.355C405.989 280.427 404.123 281.266 402.759 282.693C401.396 284.121 400.643 286.023 400.661 287.997C400.671 288.398 400.714 288.798 400.79 289.192L378.027 302.631L380.783 316.581L409.975 294.799C411.584 294.358 413.002 293.396 414.008 292.064C415.013 290.732 415.549 289.105 415.532 287.436C415.514 286.487 415.308 285.551 414.927 284.681C414.547 283.811 413.999 283.024 413.314 282.366C412.63 281.708 411.822 281.191 410.938 280.845C410.054 280.499 409.11 280.33 408.16 280.349C408.094 280.35 408.028 280.352 407.962 280.355Z" fill="#FFB6B6"/>
<path d="M389.314 312.393C388.705 311.577 388.444 311.236 388.305 311.33C387.949 311.545 388.292 314.427 385.785 319.45C382.255 326.507 345.25 337.315 345.25 337.315L340.694 328.974L320.654 292.319L313.747 262.938C313.505 261.914 313.388 260.864 313.397 259.811C319.556 255.478 326.096 251.713 332.937 248.564C335.671 250.115 337.755 252.597 338.808 255.558L352.603 294.238L358.108 309.681C358.108 309.681 367.818 302.737 371.34 304.012C374.857 305.295 375.856 303.496 373.558 297.74C371.259 291.983 374.709 297.909 378.724 298.285C382.747 298.668 378.724 298.285 380.625 295.843C382.525 293.4 394.811 292.026 394.811 292.026L395.072 292.571L399.833 302.365L401.196 305.178C401.196 305.178 396.149 310.655 394.931 311.746C393.707 312.846 393.329 312.77 393.928 314.022C394.519 315.269 391.429 315.212 389.314 312.393Z" fill="#16AAFF"/>
</g>
<defs>
<clipPath id="clip0_3_30974">
<rect width="727.622" height="539" fill="white"/>
</clipPath>
</defs>
</svg>
