<svg width="131" height="47" viewBox="0 0 131 47" fill="none" xmlns="http://www.w3.org/2000/svg">
<path d="M131 0H0V47H131V0Z" fill="white"/>
<path d="M9 37.0685H16.9785V11.3589H9V37.0685Z" fill="#2E266D"/>
<path d="M18.7539 37.0685H24.0734V14.022H18.7539V37.0685Z" fill="#2E266D"/>
<path d="M26.584 37.0684H31.6058V19.7832H26.584V37.0684Z" fill="#2E266D"/>
<path d="M10.7754 7H15.2084C16.1861 7 16.9785 7.66278 16.9785 8.47637V9.95672H9V8.47637C9 7.66278 9.7964 7 10.7754 7Z" fill="#2E266D"/>
<path d="M20.524 9.95654H22.2993C23.277 9.95654 24.0734 10.6193 24.0734 11.4329V12.9093H18.7539V11.4329C18.7539 10.6193 19.545 9.95654 20.524 9.95654Z" fill="#2E266D"/>
<path d="M28.3554 14.9785H30.1294C31.1084 14.9785 31.9048 15.636 31.9048 16.4589V17.9352H26.584V16.4589C26.584 15.636 27.3764 14.9785 28.3554 14.9785Z" fill="#2E266D"/>
<path d="M43.1511 36.6702L37.9269 37.6624L33.6446 15.0088L38.8741 14.0219L43.1511 36.6702ZM34.6368 10.6882L36.3765 10.3588C37.3382 10.1775 38.2418 10.6802 38.3939 11.4806L38.6664 12.9345L33.4409 13.9227C33.4409 13.9227 33.3166 13.2731 33.1644 12.4635C33.0123 11.6671 33.6711 10.8707 34.6368 10.6882ZM43.372 37.8357C43.372 37.8357 43.4938 38.4853 43.6446 39.2856C43.7967 40.086 43.1379 40.8877 42.1775 41.0689L40.4365 41.3983C39.4721 41.5796 38.5712 41.0782 38.4204 40.2725L38.1426 38.8226L43.372 37.8357Z" fill="#2E266D"/>
<path d="M31.9048 38.5449V40.0253C31.9048 40.8442 31.1084 41.5016 30.1294 41.5016H28.3554C27.3764 41.5016 26.584 40.8442 26.584 40.0253V38.5449H31.9048Z" fill="#2E266D"/>
<path d="M24.0734 38.5449V40.0253C24.0734 40.8442 23.277 41.5016 22.2993 41.5016H20.524C19.545 41.5016 18.7539 40.8442 18.7539 40.0253V38.5449H24.0734Z" fill="#2E266D"/>
<path d="M16.9785 38.5449V40.0253C16.9785 40.8442 16.1861 41.5016 15.2084 41.5016H10.7754C9.7964 41.5016 9 40.8442 9 40.0253V38.5449H16.9785Z" fill="#2E266D"/>
<path d="M58.0432 26.0328V27.9484H51V19.1748H57.8792V21.0957H53.4553V22.5721H57.35V24.4294H53.4553V26.0328H58.0432Z" fill="black"/>
<path d="M66.96 26.2445H63.2505L62.5626 27.9484H60.0332L63.9067 19.1748H66.3462L70.2302 27.9484H67.6532L66.96 26.2445ZM66.235 24.4136L65.1079 21.609L63.9808 24.4136H66.235Z" fill="black"/>
<path d="M75.6838 28.1228C74.9747 28.1228 74.2842 28.0355 73.6148 27.8635C72.948 27.6876 72.4056 27.4534 71.9902 27.1598L72.8052 25.3288C73.1967 25.5868 73.6518 25.7945 74.1704 25.9533C74.689 26.112 75.1983 26.1914 75.6997 26.1914C76.6522 26.1914 77.1284 25.9559 77.1284 25.4823C77.1284 25.2283 76.9922 25.0418 76.721 24.9214C76.4485 24.8023 76.0119 24.6753 75.4087 24.5404C74.7485 24.4001 74.1969 24.248 73.7524 24.0853C73.3105 23.9199 72.9322 23.6593 72.6147 23.3021C72.2972 22.9423 72.1384 22.4581 72.1384 21.8469C72.1384 21.3111 72.2839 20.8283 72.5776 20.397C72.87 19.9671 73.3052 19.6271 73.8847 19.3757C74.4667 19.1257 75.1785 19 76.0225 19C76.6006 19 77.1681 19.0661 77.7264 19.1958C78.2873 19.3268 78.7808 19.5173 79.2081 19.7673L78.4408 21.6088C77.6047 21.1577 76.7951 20.9315 76.0119 20.9315C75.5171 20.9315 75.1573 21.0055 74.9324 21.1537C74.7062 21.2992 74.5937 21.4871 74.5937 21.7199C74.5937 21.9528 74.7273 22.13 74.9959 22.2491C75.2631 22.3655 75.6944 22.4859 76.2871 22.6089C76.9538 22.7505 77.5055 22.9039 77.9434 23.0693C78.3839 23.232 78.7649 23.4913 79.0864 23.8472C79.4065 24.2004 79.5679 24.6819 79.5679 25.2918C79.5679 25.8183 79.4211 26.2946 79.1287 26.7205C78.839 27.1478 78.4011 27.4878 77.8164 27.7418C77.2303 27.9958 76.5199 28.1228 75.6838 28.1228Z" fill="black"/>
<path d="M87.0742 24.8051V27.9484H84.5924V24.7681L81.248 19.1748H83.8674L85.947 22.662L88.0267 19.1748H90.4291L87.0742 24.8051Z" fill="black"/>
<path d="M98.0391 19.1748H100.521V25.9799H104.707V27.9484H98.0391V19.1748Z" fill="black"/>
<path d="M107.346 19.1748H109.827V27.9484H107.346V19.1748Z" fill="black"/>
<path d="M120.001 23.3764C120.501 23.5497 120.893 23.8235 121.176 24.1966C121.462 24.567 121.605 25.0155 121.605 25.5407C121.605 26.3106 121.294 26.9046 120.673 27.324C120.056 27.7407 119.163 27.9484 117.996 27.9484H113.26V19.1748H117.747C118.865 19.1748 119.716 19.3838 120.298 19.7992C120.882 20.212 121.176 20.7702 121.176 21.4714C121.176 21.8881 121.073 22.2625 120.869 22.5932C120.664 22.9213 120.374 23.1832 120.001 23.3764ZM115.715 20.9687V22.662H117.419C118.255 22.662 118.673 22.3789 118.673 21.8101C118.673 21.2491 118.255 20.9687 117.419 20.9687H115.715ZM117.795 26.1545C118.663 26.1545 119.096 25.8582 119.096 25.2655C119.096 24.6728 118.663 24.3765 117.795 24.3765H115.715V26.1545H117.795Z" fill="black"/>
<path d="M73.0059 34.0215H73.5774V36.6144H75.1913V37.1012H73.0059V34.0215Z" fill="black"/>
<path d="M76.7988 34.0215H77.3703V37.1012H76.7988V34.0215Z" fill="black"/>
<path d="M81.537 35.4979C81.7064 35.5547 81.84 35.6487 81.9392 35.7783C82.0411 35.9093 82.0926 36.072 82.0926 36.2652C82.0926 36.5337 81.9881 36.7401 81.7804 36.8843C81.5754 37.0298 81.2777 37.1012 80.8861 37.1012H79.3516V34.0215H80.7962C81.1587 34.0215 81.4391 34.0929 81.6376 34.2332C81.8347 34.3747 81.9339 34.5705 81.9339 34.8205C81.9339 34.9727 81.8982 35.1089 81.8281 35.228C81.7566 35.3444 81.6601 35.4344 81.537 35.4979ZM79.9231 34.466V35.3179H80.7327C80.9338 35.3179 81.0872 35.2835 81.1931 35.2121C81.3015 35.138 81.3571 35.0322 81.3571 34.8946C81.3571 34.7544 81.3015 34.6485 81.1931 34.5771C81.0872 34.503 80.9338 34.466 80.7327 34.466H79.9231ZM80.8491 36.6514C81.2936 36.6514 81.5159 36.5033 81.5159 36.2069C81.5159 35.9106 81.2936 35.7624 80.8491 35.7624H79.9231V36.6514H80.8491Z" fill="black"/>
<path d="M85.8755 37.1012L85.2458 36.1964C85.2207 36.2003 85.1823 36.2017 85.1294 36.2017H84.4309V37.1012H83.8594V34.0215H85.1294C85.3966 34.0215 85.6294 34.0665 85.8279 34.1538C86.025 34.2424 86.1771 34.3694 86.283 34.5348C86.3888 34.6975 86.4417 34.892 86.4417 35.1169C86.4417 35.347 86.3848 35.5455 86.2724 35.7148C86.1586 35.8815 85.9972 36.0059 85.7855 36.0905L86.4946 37.1012H85.8755ZM85.8649 35.1169C85.8649 34.9197 85.7988 34.7676 85.6691 34.6618C85.5421 34.5559 85.3529 34.503 85.1029 34.503H84.4309V35.7307H85.1029C85.3529 35.7307 85.5421 35.6778 85.6691 35.5719C85.7988 35.4661 85.8649 35.3153 85.8649 35.1169Z" fill="black"/>
<path d="M90.2291 36.3869H88.6892L88.3823 37.1012H87.7949L89.1813 34.0215H89.7423L91.134 37.1012H90.536L90.2291 36.3869ZM90.0386 35.9371L89.4565 34.593L88.8797 35.9371H90.0386Z" fill="black"/>
<path d="M94.6919 37.1012L94.0622 36.1964C94.0371 36.2003 93.9987 36.2017 93.9458 36.2017H93.2473V37.1012H92.6758V34.0215H93.9458C94.213 34.0215 94.4458 34.0665 94.6443 34.1538C94.8414 34.2424 94.9935 34.3694 95.0994 34.5348C95.2052 34.6975 95.2581 34.892 95.2581 35.1169C95.2581 35.347 95.2012 35.5455 95.0888 35.7148C94.975 35.8815 94.8136 36.0059 94.6019 36.0905L95.311 37.1012H94.6919ZM94.6813 35.1169C94.6813 34.9197 94.6152 34.7676 94.4855 34.6618C94.3585 34.5559 94.1694 34.503 93.9193 34.503H93.2473V35.7307H93.9193C94.1694 35.7307 94.3585 35.6778 94.4855 35.5719C94.6152 35.4661 94.6813 35.3153 94.6813 35.1169Z" fill="black"/>
<path d="M98.3776 36.0112V37.1012H97.8061V36.0217L96.5996 34.0215H97.2082L98.113 35.519L99.0232 34.0215H99.5841L98.3776 36.0112Z" fill="black"/>
</svg>
